<mxfile host="65bd71144e">
    <diagram id="_7xl5ERmHTtwAHlCLcNF" name="Page-1">
        <mxGraphModel dx="735" dy="1519" grid="1" gridSize="10" guides="1" tooltips="1" connect="1" arrows="1" fold="1" page="1" pageScale="1" pageWidth="850" pageHeight="1100" math="0" shadow="0">
            <root>
                <mxCell id="0"/>
                <mxCell id="1" parent="0"/>
                <mxCell id="2" value="&lt;h1&gt;Για την GMM_NV.m&lt;/h1&gt;" style="text;html=1;strokeColor=none;fillColor=none;spacing=5;spacingTop=-20;whiteSpace=wrap;overflow=hidden;rounded=0;" vertex="1" parent="1">
                    <mxGeometry y="-1090" width="190" height="120" as="geometry"/>
                </mxCell>
                <mxCell id="4" value="&lt;span style=&quot;text-align: justify; background-color: initial; font-size: 13px;&quot;&gt;Ορίζονται οι έλεγχοι για την φύση των δεδομένων και δίνονται κάποιες προεπιλογές σε ρυθμίσεις, όπως:&amp;nbsp;&lt;br&gt;&lt;ul&gt;&lt;li&gt;&lt;span style=&quot;text-align: justify; background-color: initial;&quot;&gt;Ο αριθμός των επαναλήψεων&lt;/span&gt;&lt;/li&gt;&lt;li&gt;&lt;span style=&quot;text-align: justify; background-color: initial;&quot;&gt;Ο αριθμός των Replicates&amp;nbsp;&lt;/span&gt;&lt;/li&gt;&lt;li&gt;&lt;span style=&quot;text-align: justify; background-color: initial;&quot;&gt;Η ανοχή της ακρίβειας&amp;nbsp;&lt;/span&gt;&lt;/li&gt;&lt;/ul&gt;&lt;/span&gt;" style="text;html=1;strokeColor=none;fillColor=none;align=center;verticalAlign=middle;whiteSpace=wrap;rounded=0;labelBorderColor=#FF0000;" vertex="1" parent="1">
                    <mxGeometry x="280" y="-1000" width="280" height="160" as="geometry"/>
                </mxCell>
                <mxCell id="6" value="Λαμβάνεται το μέγεθος του dataset και αρχικοποιούνται τα μεγέθη ελέγχου σύγκλισης του αλγορίθμου&amp;nbsp;" style="text;html=1;strokeColor=none;fillColor=none;align=center;verticalAlign=middle;whiteSpace=wrap;rounded=0;labelBorderColor=#FF0000;fontSize=13;" vertex="1" parent="1">
                    <mxGeometry x="280" y="-840" width="280" height="120" as="geometry"/>
                </mxCell>
                <mxCell id="7" value="Λαμβάνεται το μέγεθος του dataset και αρχικοποιούνται τα μεγέθη ελέγχου σύγκλισης του αλγορίθμου&amp;nbsp;" style="text;html=1;strokeColor=none;fillColor=none;align=center;verticalAlign=middle;whiteSpace=wrap;rounded=0;labelBorderColor=#FF0000;fontSize=13;" vertex="1" parent="1">
                    <mxGeometry x="280" y="-720" width="280" height="120" as="geometry"/>
                </mxCell>
                <mxCell id="9" style="edgeStyle=none;html=1;fontSize=13;" edge="1" parent="1" source="8" target="10">
                    <mxGeometry relative="1" as="geometry">
                        <mxPoint x="420" y="-400" as="targetPoint"/>
                    </mxGeometry>
                </mxCell>
                <mxCell id="8" value="Για τον αριθμό των Replicates" style="ellipse;whiteSpace=wrap;html=1;aspect=fixed;labelBorderColor=#FF0000;fontSize=13;" vertex="1" parent="1">
                    <mxGeometry x="360" y="-580" width="120" height="120" as="geometry"/>
                </mxCell>
                <mxCell id="11" style="edgeStyle=none;html=1;fontSize=13;entryX=0.5;entryY=0;entryDx=0;entryDy=0;" edge="1" parent="1" source="10" target="12">
                    <mxGeometry relative="1" as="geometry">
                        <mxPoint x="420" y="-200" as="targetPoint"/>
                    </mxGeometry>
                </mxCell>
                <mxCell id="10" value="&lt;ul&gt;&lt;li&gt;Αρχικοποίησε τα βάρη και κανονικοποίησέ τα&lt;/li&gt;&lt;li&gt;Υπολόγισε τα κέντρα με χρήση του &lt;i&gt;k-means&lt;/i&gt;&lt;/li&gt;&lt;li&gt;Αρχικοποίησε του Covariances με μοναδιαία διακύμανση.&lt;br&gt;&lt;b style=&quot;background-color: initial;&quot;&gt;&lt;br&gt;ΠΡΟΣΟΧΗ! Οι covariances έχουν επιλεγεί ώστε να είναι διαγώνιοι για αυτή την υλοποίηση&lt;/b&gt;&lt;/li&gt;&lt;/ul&gt;" style="rounded=1;whiteSpace=wrap;html=1;labelBorderColor=#FF0000;fontSize=13;" vertex="1" parent="1">
                    <mxGeometry x="247.5" y="-420" width="345" height="140" as="geometry"/>
                </mxCell>
                <mxCell id="12" value="Για τον αριθμό των επαναλήψεων" style="ellipse;whiteSpace=wrap;html=1;aspect=fixed;labelBorderColor=#FF0000;fontSize=13;" vertex="1" parent="1">
                    <mxGeometry x="360" y="-230" width="120" height="120" as="geometry"/>
                </mxCell>
            </root>
        </mxGraphModel>
    </diagram>
</mxfile>